<?xml version="1.0" standalone="no"?>
<!DOCTYPE svg PUBLIC "-//W3C//DTD SVG 20010904//EN"
 "http://www.w3.org/TR/2001/REC-SVG-20010904/DTD/svg10.dtd">
<svg version="1.0" xmlns="http://www.w3.org/2000/svg"
 width="512.000000pt" height="512.000000pt" viewBox="0 0 512.000000 512.000000"
 preserveAspectRatio="xMidYMid meet">

<g transform="translate(0.000000,512.000000) scale(0.100000,-0.100000)"
fill="#000000" stroke="none">
<path d="M2470 5064 c-225 -25 -407 -87 -569 -192 -339 -221 -569 -580 -626
-977 -77 -537 192 -1049 680 -1292 99 -50 214 -90 319 -112 l81 -16 3 -112 3
-112 -213 -3 c-192 -3 -217 -5 -259 -24 l-46 -22 -114 86 c-63 47 -172 143
-243 214 -125 124 -150 141 -183 120 -43 -27 -41 -211 3 -359 6 -20 -2 -19
-110 27 -283 119 -537 279 -675 424 -38 40 -78 47 -105 20 -20 -20 -20 -29 4
-98 62 -182 178 -372 304 -503 47 -48 84 -88 83 -88 -1 -1 -40 -7 -87 -14
-281 -41 -543 -159 -679 -306 -41 -45 -47 -59 -35 -90 12 -32 48 -34 205 -14
302 37 904 87 916 76 2 -3 -7 -23 -21 -44 -103 -150 -89 -380 79 -1313 38
-213 49 -258 66 -273 20 -16 97 -17 1309 -17 1212 0 1289 1 1309 18 17 14 28
57 65 262 48 267 118 709 136 860 26 221 8 370 -56 463 -14 21 -23 41 -21 44
11 11 625 -41 919 -77 154 -19 190 -16 202 15 12 31 6 45 -35 90 -136 147
-398 265 -679 306 -47 7 -86 13 -87 14 -1 0 36 40 83 88 126 131 242 321 304
503 24 69 24 78 4 98 -27 27 -67 20 -105 -20 -138 -145 -392 -305 -675 -424
-108 -46 -116 -47 -110 -27 44 148 46 332 3 359 -32 21 -58 4 -183 -120 -162
-161 -349 -305 -377 -291 -57 31 -117 39 -305 39 l-193 0 3 112 3 113 81 16
c238 50 454 163 627 329 158 151 255 302 322 502 62 187 79 374 50 573 -82
578 -534 1061 -1080 1154 -70 12 -244 21 -295 15z m277 -129 c226 -39 428
-143 602 -309 232 -222 362 -496 391 -821 8 -93 7 -129 -5 -186 -26 -126 -97
-249 -204 -353 l-50 -49 -29 31 c-36 38 -46 39 -78 7 -19 -19 -23 -30 -17 -52
14 -58 11 -65 -62 -104 -38 -21 -73 -39 -77 -39 -5 0 -8 9 -8 21 0 68 -75 99
-113 45 -7 -10 -3 -58 9 -97 4 -15 -22 -25 -168 -65 -12 -4 -18 5 -23 36 -8
47 -27 70 -60 70 -41 0 -58 -27 -52 -81 l6 -48 -42 -5 c-23 -3 -66 -8 -94 -11
l-53 -6 0 41 c0 30 -7 47 -25 65 -30 31 -40 31 -70 0 -19 -18 -25 -35 -25 -65
l0 -41 -62 6 c-134 13 -128 9 -121 63 6 55 -11 82 -52 82 -33 0 -52 -23 -60
-71 -8 -46 0 -46 -128 -8 -54 16 -67 24 -63 37 12 40 16 88 9 98 -38 54 -113
23 -113 -45 0 -12 -5 -21 -11 -21 -21 0 -149 74 -149 86 0 6 5 25 11 42 12 35
1 65 -32 82 -25 14 -64 -8 -74 -40 -6 -20 -10 -18 -53 21 -78 70 -131 140
-173 225 -49 102 -62 186 -48 337 37 431 279 801 659 1009 79 44 227 95 324
113 97 18 284 18 383 0z m846 -1787 c-38 -65 -68 -108 -75 -108 -4 0 -8 10
-11 23 -3 16 9 34 47 69 28 26 53 48 54 48 2 0 -5 -15 -15 -32z m-2019 -24
c34 -28 42 -41 38 -60 -6 -32 -13 -30 -38 9 -11 17 -29 44 -38 60 -24 37 -13
34 38 -9z m291 -229 c-7 -59 8 -87 48 -87 36 0 55 17 63 58 4 20 11 33 18 31
6 -3 50 -15 98 -28 l86 -23 -5 -52 c-5 -48 -4 -53 22 -70 40 -26 77 -4 89 55
l9 44 75 -7 c41 -3 88 -6 104 -6 26 0 28 -2 28 -43 0 -55 22 -87 60 -87 38 0
60 32 60 87 0 41 2 43 28 43 16 0 63 3 104 6 l75 7 9 -44 c12 -59 49 -81 89
-55 26 17 27 22 22 71 l-5 52 81 23 c45 12 89 24 98 27 12 3 18 -4 23 -30 8
-42 27 -59 63 -59 40 0 55 28 48 87 l-7 50 69 35 c37 19 71 36 75 38 5 2 13
-9 19 -24 5 -16 16 -32 22 -37 16 -10 -91 -111 -185 -175 -205 -138 -425 -203
-688 -203 -263 0 -483 65 -688 203 -94 64 -201 165 -185 175 6 5 16 20 22 35
l10 27 76 -37 76 -37 -6 -50z m785 -577 c0 -156 7 -178 60 -178 15 0 41 -3 58
-6 l31 -6 -27 -23 c-15 -12 -60 -45 -100 -73 -98 -70 -126 -70 -224 0 -40 28
-85 61 -100 73 l-27 23 31 6 c17 3 42 6 56 6 14 0 34 7 44 17 16 14 18 33 18
160 l0 143 90 0 90 0 0 -142z m-610 -187 c0 -13 -37 -24 -52 -15 -8 5 -6 10 8
15 27 11 44 11 44 0z m1085 -1 c19 -7 19 -8 2 -15 -12 -5 -24 -2 -35 9 -13 13
-14 16 -2 15 8 0 24 -4 35 -9z m-910 -86 c3 -25 4 -48 2 -50 -5 -6 -97 38 -97
45 0 9 63 51 76 51 7 0 15 -21 19 -46z m752 24 c18 -13 33 -25 33 -29 0 -7
-92 -51 -97 -45 -9 8 9 96 20 96 6 0 26 -10 44 -22z m-1138 -405 c-4 -27 -8
-69 -8 -95 l-1 -48 -111 0 -112 0 7 53 c4 28 12 71 18 95 l10 42 103 0 102 0
-8 -47z m500 -22 c63 -64 175 -124 231 -124 56 0 168 60 231 124 l57 57 160 8
160 7 7 -89 c11 -126 -1 -334 -24 -439 -70 -320 -254 -646 -520 -926 l-71 -74
-71 74 c-266 280 -450 606 -520 926 -23 105 -35 313 -24 439 l7 89 160 -7 160
-8 57 -57z m1169 27 c6 -24 14 -67 18 -95 l7 -53 -112 0 -111 0 0 34 c0 18 -3
61 -6 95 l-7 61 100 0 101 0 10 -42z m-2199 -38 c-63 -200 -33 -528 111 -1244
22 -110 40 -203 40 -208 0 -4 -26 -8 -59 -8 l-58 0 -11 63 c-183 1062 -196
1200 -127 1337 20 40 112 136 121 127 2 -1 -6 -32 -17 -67z m2586 -1 c119
-142 112 -240 -87 -1396 l-11 -63 -58 0 c-33 0 -59 4 -59 8 0 5 18 98 40 208
154 761 177 1087 94 1298 -7 19 -6 19 23 -2 17 -12 43 -36 58 -53z m-1998
-606 c3 -10 23 -62 43 -115 l38 -98 -127 0 -127 0 -33 103 c-19 56 -36 108
-38 115 -4 9 23 12 116 12 107 0 122 -2 128 -17z m1588 -5 c-4 -13 -21 -65
-38 -115 l-31 -93 -127 0 -127 0 38 98 c20 53 40 105 43 115 6 15 21 17 127
17 121 0 121 0 115 -22z m-1584 -690 c44 -43 104 -95 136 -115 l56 -38 -128
-3 c-70 -1 -129 -1 -131 1 -5 4 -54 265 -54 281 0 6 10 -2 22 -19 12 -16 56
-65 99 -107z m1435 -14 c-14 -75 -28 -139 -30 -141 -2 -2 -61 -2 -131 -1
l-128 3 54 36 c70 47 187 156 224 208 15 23 30 39 32 37 3 -2 -7 -66 -21 -142z
m-1003 -50 c32 -37 56 -69 53 -71 -15 -15 -296 110 -296 132 0 3 42 5 93 5
l93 0 57 -66z m717 61 c0 -22 -281 -147 -296 -132 -3 2 21 34 53 71 l57 66 93
0 c51 0 93 -2 93 -5z"/>
<path d="M2127 4459 c-165 -40 -286 -216 -289 -424 -1 -90 16 -160 56 -224 28
-44 95 -98 133 -107 32 -9 29 -18 -13 -33 -47 -17 -63 -51 -39 -87 15 -23 22
-26 54 -21 65 8 151 59 227 132 58 57 80 88 118 166 79 162 93 297 45 425 -48
126 -174 202 -292 173z"/>
<path d="M2879 4457 c-130 -37 -203 -156 -203 -332 1 -100 20 -168 82 -290 66
-128 224 -258 333 -272 32 -5 39 -2 54 21 24 36 8 70 -39 86 -41 13 -46 25
-13 34 38 9 105 63 133 107 60 95 74 243 35 369 -60 194 -232 319 -382 277z"/>
<path d="M2422 3712 c-30 -30 -64 -109 -57 -132 10 -31 52 -44 81 -25 28 18
64 85 64 119 0 50 -53 73 -88 38z"/>
<path d="M2626 3714 c-22 -21 -20 -57 4 -104 27 -53 59 -74 93 -61 37 14 42
44 16 98 -38 79 -78 103 -113 67z"/>
</g>
</svg>
